<?xml version="1.0" encoding="utf-8"?>
<svg xmlns="http://www.w3.org/2000/svg" aria-label="Loeb fails on a frame with an infinite ascending chain u1 R u2 R u3 and so on. p is false along the chain and true elsewhere. Box p implies p holds at every world, so box of box p implies p holds at u1, but box p fails at u1." height="370" role="img" viewBox="0 0 900 370" width="900">
  <g font-family="Georgia, &apos;Times New Roman&apos;, &apos;DejaVu Serif&apos;, serif">
    <line stroke="#343a40" stroke-width="1.6" x1="278.0" x2="331.0" y1="180.0" y2="180.0"/>
    <line stroke="#343a40" stroke-width="1.6" x1="393.0" x2="446.0" y1="180.0" y2="180.0"/>
    <line stroke="#343a40" stroke-width="1.6" x1="508.0" x2="561.0" y1="180.0" y2="180.0"/>
    <line stroke="#343a40" stroke-width="1.6" x1="623.0" x2="676.0" y1="180.0" y2="180.0"/>
    <line stroke="#343a40" stroke-width="1.6" x1="738" x2="766" y1="180" y2="180"/>
    <text fill="#343a40" font-size="22" text-anchor="start" x="782.0" y="187">· · ·</text>
    <line stroke="#343a40" stroke-width="1.6" x1="267.8" x2="343.4" y1="201.6" y2="293.7"/>
    <circle cx="250" cy="180" fill="#8a8d90" r="28" stroke="#343a40" stroke-width="1.6"/>
    <text fill="#000" font-size="22" font-style="italic" text-anchor="middle" x="246.0" y="187">u</text>
    <text fill="#000" font-size="13" text-anchor="middle" x="257.0" y="193">1</text>
    <rect fill="none" height="9.9" stroke="#2780e3" stroke-width="1.6" width="9.9" x="224.2" y="125.1"/>
    <text fill="#2780e3" font-size="16" font-style="italic" text-anchor="start" x="238.1" y="136">p → p</text>
    <circle cx="365" cy="180" fill="#8a8d90" r="28" stroke="#343a40" stroke-width="1.6"/>
    <text fill="#000" font-size="22" font-style="italic" text-anchor="middle" x="361.0" y="187">u</text>
    <text fill="#000" font-size="13" text-anchor="middle" x="372.0" y="193">2</text>
    <rect fill="none" height="9.9" stroke="#2780e3" stroke-width="1.6" width="9.9" x="339.2" y="125.1"/>
    <text fill="#2780e3" font-size="16" font-style="italic" text-anchor="start" x="353.1" y="136">p → p</text>
    <circle cx="480" cy="180" fill="#8a8d90" r="28" stroke="#343a40" stroke-width="1.6"/>
    <text fill="#000" font-size="22" font-style="italic" text-anchor="middle" x="476.0" y="187">u</text>
    <text fill="#000" font-size="13" text-anchor="middle" x="487.0" y="193">3</text>
    <rect fill="none" height="9.9" stroke="#2780e3" stroke-width="1.6" width="9.9" x="454.2" y="125.1"/>
    <text fill="#2780e3" font-size="16" font-style="italic" text-anchor="start" x="468.1" y="136">p → p</text>
    <circle cx="595" cy="180" fill="#8a8d90" r="28" stroke="#343a40" stroke-width="1.6"/>
    <text fill="#000" font-size="22" font-style="italic" text-anchor="middle" x="591.0" y="187">u</text>
    <text fill="#000" font-size="13" text-anchor="middle" x="602.0" y="193">4</text>
    <rect fill="none" height="9.9" stroke="#2780e3" stroke-width="1.6" width="9.9" x="569.2" y="125.1"/>
    <text fill="#2780e3" font-size="16" font-style="italic" text-anchor="start" x="583.1" y="136">p → p</text>
    <circle cx="710" cy="180" fill="#8a8d90" r="28" stroke="#343a40" stroke-width="1.6"/>
    <text fill="#000" font-size="22" font-style="italic" text-anchor="middle" x="706.0" y="187">u</text>
    <text fill="#000" font-size="13" text-anchor="middle" x="717.0" y="193">5</text>
    <rect fill="none" height="9.9" stroke="#2780e3" stroke-width="1.6" width="9.9" x="684.2" y="125.1"/>
    <text fill="#2780e3" font-size="16" font-style="italic" text-anchor="start" x="698.1" y="136">p → p</text>
    <circle cx="365" cy="320" fill="#8a8d90" r="28" stroke="#343a40" stroke-width="1.6"/>
    <text fill="#000" font-size="23" font-style="italic" text-anchor="middle" x="365.0" y="328">t</text>
    <text fill="#343a40" font-size="22" font-style="italic" text-anchor="start" x="405.0" y="328">p</text>
    <text fill="#6c757d" font-size="13" text-anchor="middle" x="480.0" y="102">vacuous: each uₙ sees the next link, where p fails</text>
    <rect fill="none" height="12.4" stroke="#2780e3" stroke-width="1.6" width="12.4" x="111.6" y="158.6"/>
    <text fill="#2780e3" font-size="20" font-style="italic" text-anchor="start" x="128.0" y="172">(</text>
    <rect fill="none" height="12.4" stroke="#2780e3" stroke-width="1.6" width="12.4" x="137.0" y="158.6"/>
    <text fill="#2780e3" font-size="20" font-style="italic" text-anchor="start" x="153.4" y="172">p → p)</text>
    <text fill="#2780e3" font-size="13" text-anchor="end" x="210.0" y="194">holds at every world</text>
    <text fill="#b3261e" font-size="19" text-anchor="end" x="168.0" y="230">not</text>
    <rect fill="none" height="12.4" stroke="#b3261e" stroke-width="1.6" width="12.4" x="174.0" y="216.6"/>
    <text fill="#b3261e" font-size="20" font-style="italic" text-anchor="start" x="191.0" y="230">p</text>
    <text fill="#b3261e" font-size="13" text-anchor="end" x="210.0" y="252">u₁ sees u₂</text>
    <text fill="#6c757d" font-size="13" text-anchor="start" x="405.0" y="350">p true off the chain</text>
    <text fill="#6c757d" font-size="17" text-anchor="start" x="10.0" y="40">(⇒)  R not converse well-founded</text>
  </g>
  <polygon fill="#343a40" points="336.0,180.0 323.0,185.2 323.0,174.8"/>
  <polygon fill="#343a40" points="451.0,180.0 438.0,185.2 438.0,174.8"/>
  <polygon fill="#343a40" points="566.0,180.0 553.0,185.2 553.0,174.8"/>
  <polygon fill="#343a40" points="681.0,180.0 668.0,185.2 668.0,174.8"/>
  <polygon fill="#343a40" points="772.0,180.0 759.0,185.2 759.0,174.8"/>
  <polygon fill="#343a40" points="346.6,297.6 334.3,290.8 342.4,284.2"/>
</svg>